<?xml version="1.0" encoding="utf-8"?>
<!-- Generator: Adobe Illustrator 16.2.1, SVG Export Plug-In . SVG Version: 6.00 Build 0)  -->
<!DOCTYPE svg PUBLIC "-//W3C//DTD SVG 1.1//EN" "http://www.w3.org/Graphics/SVG/1.1/DTD/svg11.dtd">
<svg version="1.1" id="Layer_1" xmlns="http://www.w3.org/2000/svg" xmlns:xlink="http://www.w3.org/1999/xlink" x="0px" y="0px"
	 preserveAspectRatio="xMinYMin meet" viewBox="0 0 150 300" enable-background="new 0 0 150 300" xml:space="preserve">
<g id="Layer_2">
	
		<linearGradient id="SVGID_1_" gradientUnits="userSpaceOnUse" x1="387.001" y1="491" x2="387.001" y2="791" gradientTransform="matrix(1 0 0 1 -312 -491)">
		<stop  offset="0" style="stop-color:#DE891E"/>
		<stop  offset="1" style="stop-color:#CC671D"/>
	</linearGradient>
	<polygon fill="url(#SVGID_1_)" points="0,0 0,300 15,285 30,300 45,285 60,300 75,285 90,300 105,285 120,300 135,285 150,300 
		150,0 	"/>
</g>
<g id="Layer_1_1_">
	<g>
		<circle fill="#FFFFFF" cx="74.738" cy="190" r="59.738"/>
	</g>
	<g>
		<path fill="#FFFFFF" d="M74.738,246.552c-31.182,0-56.552-25.37-56.552-56.552s25.37-56.552,56.552-56.552
			c31.181,0,56.551,25.37,56.551,56.552S105.919,246.552,74.738,246.552z"/>
		<path fill="#7FC1D4" d="M74.738,134.643c30.524,0,55.357,24.833,55.357,55.357s-24.833,55.357-55.357,55.357
			c-30.523,0-55.357-24.834-55.357-55.357S44.214,134.643,74.738,134.643 M74.738,132.253c-31.893,0-57.747,25.853-57.747,57.747
			s25.854,57.747,57.747,57.747c31.893,0,57.748-25.854,57.748-57.747S106.631,132.253,74.738,132.253L74.738,132.253z"/>
	</g>
	<g>
		<path fill="#CC671D" d="M122.281,185.148c2.678,26.25-16.441,49.718-42.693,52.396c-26.25,2.679-49.716-16.444-52.394-42.692
			c-2.678-26.248,16.444-49.717,42.694-52.396C96.14,139.778,119.604,158.902,122.281,185.148z M88.835,174.301
			c0.305-0.096,0.502-1.238,0.66-1.503c0.328-0.471,0.799-0.771,1.27-1.067c1.009-0.543,2.045-0.775,3.144-1.074
			c1.021-0.355,2.322-0.488,3.228,0.359c-0.209-0.166,1.148-1.615,1.329-1.699c0.521-0.363,1.463-0.336,1.775-0.935
			c0.106-0.198-0.013-1.37-0.013-1.37c-1.04,0.23-1.514-0.723-1.662-1.58c0.006,0.058-0.101,0.256-0.323,0.53
			c-0.031-0.933-1.142-0.136-1.589-0.214c-1.456-0.225-1.372-1.236-1.912-2.243c-0.305-0.53-1.005-0.649-1.31-1.18
			c-0.288-0.347-0.489-1.14-1.056-1.146c-0.376-0.022-0.918,1.409-1.047,1.359c-0.591-0.255-0.796,0.203-1.201,0.496
			c-0.346,0.285-0.665,0.195-1.021,0.419c1.075-0.487-0.6-0.94-1.14-0.759c0.842-0.338,0.312-1.223-0.228-1.604
			c0.128-0.013,0.186-0.021,0.312-0.032c-0.18-0.541-1.966-0.86-2.557-1.176c-0.6-0.316-3.632-0.631-4.212-0.199
			c-0.7,0.51,0.354,1.656,0.417,2.276c0.141,0.735-0.647,1.005-0.585,1.622c0.107,1.051,2.068,0.665,1.716,2.136
			c-0.216,0.903-1.375,1.207-1.803,1.94c-0.429,0.668,0.239,1.724,0.781,2.107c0.533,0.317-0.768,1.075-0.938,1.224
			c-1.006,0.599-1.967-0.867-2.309-1.767c-0.256-0.662-0.401-1.465-1.179-1.761c-0.386-0.084-1.578-0.147-1.79,0.246
			c-0.464-0.892-1.8-1.13-2.705-1.353c-1.281-0.308-2.333-0.199-3.613,0.119c0.429-0.104-0.328-1.97-1.347-1.551
			c0.249-0.648,0.052-1.318,0.116-1.949c0.07-0.508,0.269-1.029,0.595-1.502c0.1-0.261,1.318-1.82,0.879-1.839
			c1.064,0.013,2.244-0.044,3.025-0.999c0.498-0.611,0.653-1.566,1.146-2.24c0.712-1.012,1.822,0.061,2.692,0.035
			c1.248-0.062,1.044-1.42,0.301-1.97c0.81-0.019-0.024-1.438-0.476-1.579c-0.575-0.128-2.625,0.648-1.465,0.967
			c-0.258-0.103-1.432,3.146-2.456,1.688c-0.28-0.286-0.534-1.574-1.099-1.575c-0.492,0.052-0.747,0.636-0.894,1.026
			c0.23-0.838-1.871-1.182-2.312-1.199c0.868-0.714,0.053-1.318-0.666-1.621c-0.529-0.26-2.101-0.352-2.484,0.189
			c-1.028,1.539,1.407,1.483,2.062,1.793c0.197,0.102,0.986,0.459,0.585,0.816c-0.356,0.221-1.438,0.646-1.536,0.903
			c-0.313,0.596,0.553,1.132,0.052,1.749c-0.613-0.504-0.708-1.434-1.203-2.006c0.624,0.623-2.199,0.537-2.133,0.531
			c-0.931,0.096-2.352,0.863-3.129,0.006c-0.151-0.237-0.296-1.657,0.109-1.391c-0.604-0.376-1.018-0.771-1.413-0.98
			c-1.975,0.889-3.804,1.951-5.562,3.135c0.254,0.037,0.438,0.02,0.737-0.139c0.473-0.237,0.875-0.592,1.345-0.887
			c0.593-0.312,1.821-1.188,2.556-0.697c0.051-0.133,0.223-0.274,0.28-0.344c0.483,0.451,0.967,0.898,1.394,1.42
			c-0.516-0.199-1.312,0.008-1.861,0.127c-0.419,0.17-1.153,0.367-1.287,0.885c0.216,0.287,0.515,0.759,0.426,1.082
			c-0.866-0.479-1.578-1.344-2.707-1.353c-0.495,0.052-0.987,0.101-1.355,0.203c-5.609,3.884-10.137,9.163-13.146,15.224
			c0.274,0.225,0.539,0.383,0.794,0.42c0.637,0.121,0.202,1.981,1.286,0.934c0.402,0.271,0.509,0.701,0.304,1.156
			c0.057-0.068,2.694,1.291,2.892,1.394c0.476,0.329,1.197,0.694,1.437,1.168c0.166,0.419-0.153,0.953-0.509,1.177
			c-0.071-0.115-1.096-0.947-1.196-0.688c-0.154,0.332,0.202,1.981,0.876,1.85c-0.982,0.163-0.157,3.956-0.33,4.724
			c0.007,0.065,0.129,0.054,0.129,0.054c-0.11,0.763,0.805,3.606,2.014,3.171c-0.783,0.27,1.731,2.891,2.061,3.041
			c0.86,0.479,1.827,0.753,2.47,1.499c0.707,0.808,0.838,2.103,1.774,2.694c-0.172,0.772,1.465,1.481,1.509,2.537
			c-0.117,0.076-0.179,0.082-0.294,0.16c0.396,0.836,1.573,0.715,2.087,1.473c0.299,0.473,0.17,1.67,0.949,1.345
			c-0.012-1.376-1.082-2.646-1.876-3.69c-0.434-0.578-0.864-1.101-1.235-1.688c-0.368-0.525-0.5-1.2-0.807-1.793
			c0.25,0.031,1.663,0.391,1.56,0.589c-0.37,1.291,2.329,3.207,3.093,3.938c0.203,0.164,1.814,1.877,1.073,1.953
			c0.803-0.082,2.043,1.043,2.478,1.625c0.655,0.871,0.649,2.062,1.124,3.012c0.497,1.201,2.287,1.582,3.336,2.041
			c0.91,0.344,1.713,0.885,2.612,1.104c1.356,0.364,1.616-0.099,2.712-0.397c1.586-0.412,1.956,1.363,3.324,1.916
			c0.847,0.349,2.644,0.787,3.478,0.33c-0.365,0.16,1.57,2.526,1.712,2.705c0.635,0.685,1.723,0.945,2.417,1.625
			c0.172-0.142,0.336-0.347,0.376-0.601c-0.179,0.706,1.134,1.886,1.736,1.703c0.669-0.195,0.716-1.577,0.666-2.071
			c-1.174,0.744-2.339,0.361-3.146-0.801c-0.16-0.302-1.321-1.932-0.456-2.021c1.178-0.119,0.276-0.969,0.063-1.822
			c-0.216-0.854-1.137-1.319-1.647-2.02c-0.294,0.781-1.548,0.719-1.985,0.139c0.019,0.187-0.134,0.516-0.108,0.764
			c-0.309,0.031-0.612,0.127-0.937,0.032c0.051-0.757,0.015-1.688,0.119-2.519c0.194-1.143,2.019-3.519-0.632-3.121
			c-0.924,0.152-1.256,0.567-1.485,1.402c-0.23,0.775-0.04,1.443-0.868,1.9c-0.529,0.308-2.402,0.367-2.989,0.117
			c-1.246-0.558-2.271-2.644-2.398-3.886c-0.233-1.659,0.483-3.233-0.479-4.698c0.338-0.353,0.645-1.009,1.046-1.359
			c0.349-0.288,0.827,0.101,0.937-0.658c-0.198-0.105-0.471-0.328-0.535-0.32c0.975,0.34,2.599-0.895,3.466-0.354
			c0.535,0.321,1.103,0.385,1.351-0.265c0.044-0.188-0.527-0.885-0.33-1.401c0.292,1.032,0.993,1.149,1.854,0.371
			c0.407,0.331,1.386,0.108,2.101,0.411c0.726,0.361,0.923,1.027,1.631,0.017c0.572,0.694,0.637,0.688,0.896,1.414
			c0.254,0.661,0.801,2.36,1.45,2.603c1.386,0.676,0.853-1.463,0.66-2.188c-0.071-0.058-0.279-2.103-0.344-2.097
			c-2.026-0.23-1.438-1.854-0.431-3.019c0.173-0.141,1.543-0.782,2.114-1.342c0.506-0.556,1.099-1.49,0.706-2.263
			c0.311-0.03,0.535-0.305,0.624-0.625c-0.191-0.043-1.001-0.586-1.115-0.517c0.409-0.288,0.309-0.655,0.02-0.999
			c0.585-0.432,0.207-1.08,0.799-1.396c0.776,0.86,2.032-0.335,1.276-1.005c0.527-0.928,1.997-0.643,2.285-1.488
			c0.955,0.152,0.153-0.948,0.58-1.682c0.378-0.604,1.117-0.68,1.646-1.043c0.006,0.059,1.46-1.025,0.956-1.039
			c1.063,0.015,3.059-1.312,1.351-2.072c0.191-0.585-0.635-0.753-1.207-0.817c0.42-0.172,1.005,0.021,1.351-0.267
			c0.747-0.637,0.165-0.828-0.535-0.941c-0.891-0.162-1.95,0.508-2.586,1.014C89.683,173.4,89.446,174.114,88.835,174.301z
			 M106.123,214.385c-0.409-0.334-1.075-0.144-1.596-0.339c-0.517-0.134-0.907-0.284-1.535-0.346
			c-0.006-1.249-1.41-1.543-2.345-2.073c-0.865-0.534-1.429-1.169-2.577-0.801c-0.12,0.07-1.313,0.633-1.04,0.855
			c-0.876-0.601-1.283-0.932-2.367-1.139c-1.022-0.204-1.829-1.376-2.706-0.158c-0.443,0.547-0.12,1.268-0.317,1.784
			c-0.871-0.599,0.591-1.563-0.104-2.241c-0.831-0.787-1.986,0.766-2.566,1.196c-0.345,0.353-0.763,0.524-0.975,0.92
			c-0.262,0.461-0.332,1.029-0.531,1.488c-0.239-0.472-1.275-0.245-1.375-0.607c0.395,1.458,0.553,3.007,1.018,4.459
			c0.271,0.847,0.234,2.291-0.443,3.05c-0.671,0.754-1.524,1.592-1.544,2.657c-0.045,0.757,0.209,1.42,0.909,1.531
			c0.158,0.925-0.824,1.715-0.663,2.694c0.006,0.062,0.131,0.677,0.226,0.979C93.918,225.952,101.042,220.971,106.123,214.385z"/>
	</g>
	<rect x="-31.059" y="9.25" fill="#FFFFFF" width="214.118" height="10"/>
</g>
</svg>
