<?xml version="1.0" encoding="utf-8"?>
<!-- Generator: Adobe Illustrator 16.2.1, SVG Export Plug-In . SVG Version: 6.00 Build 0)  -->
<!DOCTYPE svg PUBLIC "-//W3C//DTD SVG 1.1//EN" "http://www.w3.org/Graphics/SVG/1.1/DTD/svg11.dtd">
<svg version="1.1" id="Layer_1" xmlns="http://www.w3.org/2000/svg" xmlns:xlink="http://www.w3.org/1999/xlink" x="0px" y="0px"
	 width="16px" height="16px" viewBox="0 0 16 16" enable-background="new 0 0 16 16" xml:space="preserve">
<path fill="#333333" d="M13.99,0c0.555,0,1.028,0.195,1.419,0.589C15.803,0.98,16,1.456,16,2.01v11.98
	c0,0.283-0.056,0.547-0.161,0.795c-0.108,0.242-0.251,0.449-0.43,0.629c-0.176,0.178-0.391,0.318-0.64,0.424
	C14.521,15.949,14.26,16,13.99,16h-3.511v-0.26c0-0.271,0.004-0.607,0.02-1.012c0.015-0.398,0.002-0.803-0.036-1.203
	c-0.039-0.398-0.124-0.76-0.255-1.088c-0.131-0.326-0.357-0.556-0.678-0.688c1.307-0.136,2.314-0.519,3.022-1.144
	c0.707-0.625,1.062-1.624,1.062-2.991c0-0.459-0.079-0.901-0.236-1.333c-0.155-0.431-0.391-0.827-0.701-1.188
	c0.043-0.159,0.068-0.317,0.083-0.47c0.015-0.151,0.019-0.308,0.019-0.467c0-0.285-0.031-0.602-0.098-0.95
	c-0.065-0.346-0.174-0.642-0.327-0.884h-0.125c-0.3-0.013-0.574,0.015-0.822,0.089c-0.251,0.072-0.487,0.168-0.71,0.285
	c-0.221,0.119-0.438,0.251-0.65,0.391C9.833,3.23,9.606,3.369,9.364,3.5C9.135,3.473,8.907,3.452,8.682,3.437
	C8.457,3.424,8.228,3.416,7.998,3.416c-0.228,0-0.455,0.008-0.68,0.021C7.093,3.452,6.863,3.473,6.634,3.5
	c-0.242-0.125-0.47-0.262-0.68-0.406C5.741,2.948,5.524,2.816,5.301,2.697C5.078,2.58,4.845,2.484,4.598,2.412
	C4.352,2.338,4.075,2.31,3.77,2.323H3.646C3.485,2.565,3.374,2.861,3.311,3.207c-0.062,0.349-0.094,0.665-0.094,0.95
	c0,0.159,0.009,0.316,0.021,0.474c0.015,0.155,0.042,0.311,0.085,0.463C3.009,5.447,2.779,5.844,2.63,6.282
	C2.479,6.718,2.405,7.165,2.405,7.615c0,1.342,0.332,2.324,0.995,2.949c0.663,0.624,1.64,1.016,2.932,1.164
	c-0.27,0.115-0.476,0.29-0.621,0.524c-0.14,0.236-0.255,0.496-0.335,0.781c-0.189,0.055-0.361,0.111-0.519,0.162
	c-0.155,0.051-0.332,0.076-0.525,0.076c-0.38,0-0.687-0.098-0.916-0.299c-0.229-0.195-0.438-0.412-0.62-0.648
	c-0.183-0.234-0.38-0.452-0.589-0.651c-0.208-0.2-0.482-0.298-0.822-0.298c-0.03,0-0.1,0.009-0.212,0.021
	c-0.115,0.013-0.174,0.055-0.174,0.123c0,0.161,0.068,0.271,0.204,0.336c0.136,0.063,0.244,0.127,0.327,0.195
	c0.272,0.217,0.468,0.463,0.591,0.74c0.119,0.281,0.255,0.543,0.404,0.799c0.151,0.256,0.368,0.473,0.652,0.65
	c0.285,0.184,0.725,0.271,1.324,0.271c0.242,0,0.519-0.037,0.833-0.113c0,0.066-0.004,0.131-0.011,0.189
	c-0.006,0.061-0.011,0.119-0.011,0.176c0,0.199,0.006,0.408,0.021,0.619C5.346,15.592,5.34,15.801,5.312,16H2.01
	c-0.557,0-1.029-0.195-1.422-0.586C0.195,15.021,0,14.547,0,13.99V2.01c0-0.27,0.053-0.531,0.162-0.782
	c0.106-0.249,0.25-0.463,0.427-0.64C0.765,0.41,0.975,0.27,1.22,0.162C1.462,0.053,1.726,0,2.01,0H13.99L13.99,0z"/>
</svg>
