<?xml version="1.0" encoding="utf-8"?>
<!-- Generator: Adobe Illustrator 16.2.1, SVG Export Plug-In . SVG Version: 6.00 Build 0)  -->
<!DOCTYPE svg PUBLIC "-//W3C//DTD SVG 1.1//EN" "http://www.w3.org/Graphics/SVG/1.1/DTD/svg11.dtd">
<svg version="1.1" id="Layer_1" xmlns="http://www.w3.org/2000/svg" xmlns:xlink="http://www.w3.org/1999/xlink" x="0px" y="0px"
	 width="150px" height="150px" viewBox="0 0 150 150" enable-background="new 0 0 150 150" xml:space="preserve">
<g>
	<circle fill="#FFFFFF" cx="75" cy="75" r="75"/>
</g>
<g>
	<path fill="#FFFFFF" d="M75,146c-39.149,0-71-31.852-71-71C4,35.851,35.851,4,75,4c39.148,0,71,31.851,71,71
		C146,114.148,114.148,146,75,146z"/>
	<path fill="#7FC1D4" d="M75,5.5c38.322,0,69.5,31.178,69.5,69.5c0,38.322-31.178,69.5-69.5,69.5c-38.322,0-69.5-31.178-69.5-69.5
		C5.5,36.678,36.678,5.5,75,5.5 M75,2.5C34.959,2.5,2.5,34.959,2.5,75s32.459,72.5,72.5,72.5s72.5-32.459,72.5-72.5
		S115.041,2.5,75,2.5L75,2.5z"/>
</g>
<g>
	<path fill="#CC671D" d="M135,75c0,33.126-26.871,60-60,60c-33.127,0-60-26.874-60-60c0-33.125,26.873-60,60-60
		C108.129,15,135,41.875,135,75z M94.607,57.188c0.394-0.08,0.785-1.485,1.018-1.794c0.469-0.545,1.096-0.861,1.721-1.172
		c1.329-0.549,2.653-0.708,4.062-0.94c1.323-0.314,2.964-0.314,3.987,0.86c-0.24-0.233,1.638-1.873,1.875-1.953
		c0.697-0.389,1.871-0.235,2.338-0.94c0.158-0.234,0.158-1.713,0.158-1.713c-1.328,0.154-1.799-1.096-1.875-2.188
		c0,0.074-0.158,0.308-0.47,0.622c0.079-1.167-1.409-0.314-1.957-0.468c-1.79-0.466-1.558-1.72-2.104-3.046
		c-0.312-0.701-1.172-0.938-1.485-1.641c-0.315-0.467-0.467-1.485-1.173-1.565c-0.467-0.075-1.326,1.645-1.482,1.565
		c-0.703-0.393-1.019,0.154-1.562,0.468c-0.469,0.313-0.855,0.16-1.328,0.394c1.406-0.473-0.628-1.254-1.326-1.094
		c1.094-0.312,0.545-1.487-0.08-2.033c0.161,0,0.234,0,0.393,0c-0.157-0.699-2.346-1.326-3.043-1.794
		c-0.709-0.472-4.455-1.252-5.236-0.786c-0.939,0.546,0.232,2.113,0.232,2.895c0.08,0.938-0.938,1.172-0.938,1.951
		c0,1.328,2.499,1.096,1.871,2.888c-0.385,1.1-1.871,1.333-2.499,2.192c-0.622,0.781,0.079,2.186,0.706,2.734
		c0.626,0.466-1.094,1.246-1.328,1.408c-1.332,0.619-2.346-1.334-2.658-2.501c-0.234-0.86-0.314-1.88-1.248-2.347
		c-0.471-0.154-1.951-0.386-2.267,0.079c-0.466-1.172-2.105-1.641-3.206-2.034c-1.561-0.546-2.888-0.546-4.528-0.312
		c0.548-0.075-0.159-2.501-1.485-2.108c0.393-0.779,0.233-1.64,0.393-2.419c0.152-0.627,0.467-1.252,0.934-1.8
		c0.159-0.312,1.879-2.106,1.333-2.185c1.327,0.152,2.808,0.232,3.907-0.861c0.7-0.701,1.015-1.875,1.715-2.654
		c1.019-1.172,2.269,0.307,3.359,0.386c1.567,0.082,1.485-1.639,0.627-2.42c1.014,0.08,0.151-1.799-0.394-2.033
		c-0.701-0.232-3.36,0.475-1.953,1.02c-0.308-0.16-2.188,3.747-3.281,1.794c-0.312-0.393-0.467-2.034-1.172-2.107
		c-0.621,0-1.014,0.699-1.247,1.167c0.394-1.014-2.186-1.714-2.734-1.792c1.174-0.782,0.234-1.641-0.625-2.109
		c-0.627-0.393-2.58-0.706-3.127-0.079c-1.48,1.793,1.567,2.032,2.346,2.499c0.234,0.154,1.174,0.702,0.627,1.096
		c-0.473,0.232-1.879,0.625-2.033,0.933c-0.467,0.705,0.546,1.486-0.159,2.192c-0.701-0.706-0.701-1.88-1.247-2.659
		c0.7,0.86-2.815,0.393-2.733,0.393c-1.174,0-3.047,0.779-3.908-0.393c-0.159-0.314-0.159-2.107,0.314-1.72
		c-0.707-0.547-1.173-1.094-1.64-1.406c-2.58,0.859-5,1.953-7.347,3.205c0.313,0.08,0.545,0.08,0.938-0.079
		c0.622-0.234,1.169-0.628,1.794-0.935c0.781-0.313,2.426-1.252,3.281-0.545c0.08-0.161,0.313-0.314,0.394-0.393
		c0.546,0.625,1.093,1.245,1.56,1.951c-0.62-0.313-1.64-0.159-2.341-0.079c-0.545,0.159-1.487,0.312-1.719,0.94
		c0.232,0.387,0.546,1.013,0.393,1.406c-1.02-0.708-1.799-1.879-3.208-2.034c-0.625,0-1.246,0-1.719,0.081
		c-7.5,4.139-13.828,10.154-18.359,17.34c0.313,0.314,0.625,0.547,0.939,0.626c0.78,0.233,0,2.5,1.488,1.329
		c0.467,0.391,0.546,0.94,0.232,1.484c0.08-0.08,3.2,1.955,3.435,2.109c0.552,0.47,1.406,1.019,1.646,1.641
		c0.154,0.545-0.313,1.172-0.786,1.405c-0.074-0.154-1.248-1.326-1.407-1.014c-0.234,0.395,0,2.5,0.859,2.421
		c-1.247,0.079-0.7,4.923-1.014,5.858c0,0.083,0.154,0.083,0.154,0.083c-0.234,0.939,0.547,4.606,2.112,4.217
		c-1.013,0.236,1.794,3.83,2.187,4.062c1.014,0.706,2.186,1.172,2.894,2.186c0.78,1.097,0.78,2.733,1.873,3.593
		c-0.313,0.943,1.641,2.037,1.561,3.359c-0.155,0.08-0.234,0.08-0.387,0.163c0.387,1.094,1.873,1.094,2.419,2.106
		c0.313,0.627,0,2.105,1.014,1.799c0.16-1.721-1.014-3.439-1.874-4.848c-0.468-0.777-0.939-1.484-1.327-2.265
		c-0.393-0.702-0.472-1.562-0.779-2.342c0.308,0.073,2.027,0.7,1.873,0.935c-0.627,1.565,2.501,4.301,3.361,5.312
		c0.233,0.231,2.027,2.578,1.092,2.578c1.013,0,2.419,1.562,2.888,2.344c0.706,1.172,0.547,2.658,1.02,3.904
		c0.467,1.564,2.654,2.269,3.907,2.975c1.093,0.546,2.027,1.324,3.121,1.712c1.646,0.627,2.031,0.082,3.438-0.153
		c2.034-0.312,2.268,1.955,3.907,2.816c1.014,0.544,3.201,1.322,4.302,0.859c-0.476,0.152,1.639,3.355,1.793,3.593
		c0.707,0.938,2.032,1.403,2.813,2.338c0.231-0.152,0.464-0.388,0.546-0.7c-0.314,0.859,1.175,2.5,1.952,2.348
		c0.86-0.158,1.094-1.879,1.094-2.502c-1.562,0.78-2.967,0.154-3.827-1.402c-0.16-0.396-1.404-2.581-0.312-2.581
		c1.486,0,0.468-1.175,0.312-2.269c-0.16-1.093-1.252-1.793-1.8-2.732c-0.467,0.939-2.026,0.701-2.5-0.079
		c0,0.233-0.231,0.626-0.231,0.938c-0.389,0-0.781,0.08-1.175-0.078c0.16-0.939,0.234-2.106,0.472-3.129
		c0.388-1.404,2.968-4.138-0.393-3.979c-1.173,0.073-1.64,0.547-2.033,1.562c-0.386,0.938-0.234,1.799-1.326,2.264
		c-0.701,0.316-3.047,0.152-3.748-0.233c-1.486-0.856-2.5-3.592-2.5-5.16c-0.081-2.104,1.014-3.979,0-5.931
		c0.467-0.395,0.933-1.176,1.48-1.564c0.473-0.315,1.02,0.231,1.254-0.703c-0.234-0.158-0.547-0.469-0.627-0.469
		c1.174,0.549,3.36-0.785,4.374,0c0.627,0.469,1.328,0.622,1.72-0.158c0.079-0.23-0.546-1.172-0.233-1.793
		c0.233,1.328,1.093,1.562,2.267,0.7c0.468,0.466,1.72,0.312,2.572,0.781c0.86,0.544,1.022,1.403,2.035,0.229
		c0.627,0.941,0.707,0.941,0.938,1.881c0.234,0.859,0.701,3.048,1.48,3.436c1.646,1.018,1.252-1.721,1.102-2.652
		c-0.08-0.08-0.08-2.662-0.16-2.662c-2.502-0.547-1.561-2.5-0.153-3.826c0.233-0.153,2.026-0.78,2.811-1.406
		c0.702-0.627,1.562-1.721,1.171-2.734c0.391,0,0.707-0.312,0.859-0.701c-0.234-0.08-1.176-0.861-1.328-0.786
		c0.548-0.308,0.469-0.781,0.152-1.247c0.785-0.465,0.396-1.325,1.176-1.641c0.859,1.175,2.579-0.159,1.72-1.092
		c0.778-1.093,2.578-0.548,3.046-1.567c1.174,0.312,0.312-1.167,0.938-2.027c0.55-0.706,1.481-0.706,2.188-1.092
		c0,0.074,1.955-1.096,1.327-1.176c1.327,0.154,3.987-1.251,1.951-2.418c0.313-0.707-0.698-1.021-1.403-1.175
		c0.545-0.159,1.252,0.154,1.719-0.159c1.015-0.701,0.312-1.014-0.547-1.246c-1.092-0.315-2.502,0.386-3.36,0.935
		C95.782,56.173,95.395,57.034,94.607,57.188z M111.094,109.456c-0.469-0.47-1.326-0.315-1.951-0.627
		c-0.627-0.233-1.097-0.47-1.873-0.627c0.152-1.562-1.566-2.106-2.664-2.89c-1.012-0.777-1.637-1.64-3.117-1.326
		c-0.159,0.072-1.721,0.621-1.408,0.935c-1.018-0.86-1.484-1.325-2.812-1.722c-1.252-0.387-2.11-1.952-3.36-0.543
		c-0.624,0.626-0.312,1.566-0.624,2.188c-1.012-0.857,0.938-1.877,0.156-2.812c-0.938-1.091-2.578,0.702-3.358,1.167
		c-0.474,0.396-1.019,0.556-1.332,1.023c-0.388,0.543-0.547,1.245-0.854,1.793c-0.24-0.621-1.563-0.469-1.641-0.935
		c0.307,1.873,0.307,3.825,0.703,5.699c0.23,1.093,0,2.892-0.941,3.751c-0.936,0.859-2.107,1.795-2.268,3.124
		c-0.152,0.938,0.08,1.8,0.939,2.03c0.08,1.176-1.248,2.037-1.172,3.281c0,0.079,0.078,0.86,0.159,1.251
		C94.374,122.348,103.907,117.032,111.094,109.456z"/>
</g>
</svg>
