<?xml version="1.0" encoding="utf-8"?>
<!-- Generator: Adobe Illustrator 16.2.1, SVG Export Plug-In . SVG Version: 6.00 Build 0)  -->
<!DOCTYPE svg PUBLIC "-//W3C//DTD SVG 1.1//EN" "http://www.w3.org/Graphics/SVG/1.1/DTD/svg11.dtd">
<svg version="1.1" id="Layer_1" xmlns="http://www.w3.org/2000/svg" xmlns:xlink="http://www.w3.org/1999/xlink" x="0px" y="0px"
	 width="16px" height="16px" viewBox="0 0 16 16" enable-background="new 0 0 16 16" xml:space="preserve">
<path fill="#0F71D3" d="M13.99,0c0.555,0,1.028,0.198,1.421,0.588C15.803,0.981,16,1.456,16,2.01v11.976
	c0,0.289-0.056,0.553-0.161,0.795c-0.108,0.242-0.251,0.45-0.428,0.629c-0.178,0.179-0.391,0.319-0.642,0.43
	C14.521,15.944,14.26,16,13.99,16H2.01c-0.555,0-1.029-0.2-1.422-0.591S0,14.542,0,13.985V2.01c0-0.27,0.053-0.531,0.162-0.78
	c0.108-0.25,0.25-0.465,0.427-0.642C0.765,0.412,0.975,0.27,1.22,0.162C1.462,0.053,1.726,0,2.01,0H13.99L13.99,0z M3.563,5.01
	c0.395,0,0.731-0.138,1.009-0.417s0.417-0.614,0.417-1.012c0-0.38-0.138-0.711-0.417-0.988C4.294,2.316,3.958,2.178,3.563,2.178
	c-0.383,0-0.712,0.138-0.99,0.417C2.295,2.871,2.157,3.202,2.157,3.582c0,0.397,0.138,0.733,0.417,1.012S3.181,5.01,3.563,5.01z
	 M4.906,6.145c0-0.202-0.1-0.302-0.302-0.302H2.52c-0.068,0-0.136,0.03-0.202,0.089s-0.1,0.129-0.1,0.212v7.353
	c0,0.072,0.032,0.141,0.094,0.204c0.063,0.068,0.131,0.098,0.208,0.098h2.084c0.083,0,0.155-0.029,0.212-0.094
	c0.06-0.06,0.089-0.132,0.089-0.208V6.145z M13.844,8.531c0-0.979-0.281-1.704-0.844-2.171c-0.563-0.47-1.313-0.704-2.25-0.704
	c-0.382,0-0.754,0.053-1.12,0.155c-0.363,0.106-0.688,0.3-0.973,0.584c0-0.111-0.011-0.232-0.032-0.359
	C8.604,5.909,8.516,5.843,8.365,5.843H6.334c-0.07,0-0.136,0.03-0.2,0.089c-0.062,0.06-0.093,0.129-0.093,0.212v7.353
	c0,0.072,0.032,0.141,0.093,0.204c0.064,0.068,0.13,0.098,0.2,0.098h2.093c0.083,0,0.155-0.029,0.212-0.094
	c0.06-0.06,0.089-0.132,0.089-0.208V9.511c0-0.476,0.091-0.868,0.276-1.185c0.185-0.314,0.54-0.474,1.069-0.474
	c0.408,0,0.684,0.1,0.827,0.297s0.215,0.48,0.215,0.847v4.5c0,0.072,0.027,0.141,0.083,0.204c0.055,0.068,0.127,0.098,0.219,0.098
	h2.125c0.069,0,0.136-0.029,0.203-0.094c0.066-0.06,0.099-0.132,0.099-0.208V8.531z"/>
</svg>
