<?xml version="1.0" encoding="utf-8"?>
<!-- Generator: Adobe Illustrator 16.2.1, SVG Export Plug-In . SVG Version: 6.00 Build 0)  -->
<!DOCTYPE svg PUBLIC "-//W3C//DTD SVG 1.1//EN" "http://www.w3.org/Graphics/SVG/1.1/DTD/svg11.dtd">
<svg version="1.1" id="Layer_1" xmlns="http://www.w3.org/2000/svg" xmlns:xlink="http://www.w3.org/1999/xlink" x="0px" y="0px"
	 width="16px" height="16px" viewBox="0 0 16 16" enable-background="new 0 0 16 16" xml:space="preserve">
<path fill="#21A4F4" d="M13.99,0c0.555,0,1.028,0.198,1.419,0.588C15.803,0.981,16,1.456,16,2.01v11.976
	c0,0.289-0.056,0.553-0.161,0.795c-0.108,0.242-0.251,0.45-0.43,0.629c-0.176,0.179-0.391,0.319-0.64,0.43
	C14.521,15.944,14.26,16,13.99,16H1.978c-0.27,0-0.524-0.056-0.765-0.161c-0.24-0.11-0.448-0.251-0.625-0.43
	c-0.176-0.179-0.321-0.387-0.427-0.629C0.053,14.538,0,14.274,0,13.985V2.01c0-0.27,0.053-0.531,0.162-0.78
	c0.106-0.25,0.25-0.465,0.427-0.642C0.765,0.412,0.975,0.27,1.22,0.162C1.462,0.053,1.715,0,1.978,0H13.99L13.99,0z M12.541,8.831
	c0.569-0.042,1.016-0.239,1.343-0.594c0.098-0.096,0.11-0.21,0.042-0.342c-0.055-0.125-0.161-0.176-0.312-0.157h-0.043
	c0.159-0.16,0.266-0.314,0.312-0.468c0.055-0.138,0.029-0.25-0.083-0.333c-0.096-0.098-0.21-0.104-0.342-0.021
	C13.401,6.943,13.3,6.979,13.148,7.02C13,7.062,12.843,7.082,12.677,7.082c-0.029,0-0.056-0.002-0.079-0.008
	c-0.022-0.009-0.051-0.011-0.078-0.011c0-0.015-0.004-0.028-0.011-0.042c-0.006-0.013-0.011-0.028-0.011-0.041
	c-0.11-0.425-0.308-0.807-0.593-1.151c-0.285-0.344-0.61-0.595-0.979-0.756c0.028-0.025,0.049-0.055,0.064-0.083
	c0.013-0.028,0.034-0.055,0.062-0.083c0.041-0.11,0.041-0.225,0-0.344c-0.015-0.042-0.058-0.098-0.129-0.166
	c-0.072-0.07-0.193-0.098-0.361-0.085c-0.013-0.025-0.034-0.055-0.062-0.083c-0.083-0.083-0.17-0.112-0.262-0.093
	c-0.172,0.027-0.342,0.074-0.51,0.136L9.706,4.25C9.611,4.194,9.502,4.201,9.383,4.271c-0.408,0.257-0.748,0.604-1.02,1.041
	C8.091,5.75,7.857,6.219,7.656,6.718c-0.244-0.214-0.44-0.357-0.593-0.427C6.638,6.049,6.189,5.828,5.718,5.63
	S4.711,5.218,4.114,4.989C4.016,4.961,3.933,4.976,3.863,5.031C3.795,5.072,3.742,5.146,3.708,5.25
	C3.693,5.437,3.723,5.641,3.795,5.858C3.869,6.079,4.003,6.295,4.199,6.51C4.024,6.55,3.954,6.663,3.99,6.844
	c0.081,0.472,0.319,0.822,0.706,1.052L4.562,8.021C4.464,8.119,4.449,8.233,4.521,8.365c0.026,0.083,0.119,0.212,0.274,0.389
	c0.155,0.175,0.384,0.311,0.682,0.4C5.436,9.239,5.416,9.316,5.416,9.384c0,0.072,0.006,0.119,0.02,0.145
	c0.042,0.229,0.178,0.403,0.408,0.522c-0.257,0.174-0.531,0.293-0.824,0.353c-0.289,0.064-0.586,0.085-0.884,0.06
	c-0.297-0.025-0.586-0.098-0.865-0.212c-0.278-0.119-0.521-0.28-0.729-0.48C2.486,9.715,2.418,9.686,2.337,9.686
	c-0.081,0-0.146,0.03-0.204,0.085c-0.157,0.123-0.172,0.259-0.041,0.404c0.555,0.773,1.245,1.359,2.068,1.763
	c0.824,0.399,1.725,0.604,2.703,0.604c0.667,0,1.309-0.094,1.921-0.276c0.616-0.183,1.173-0.438,1.668-0.765
	s0.928-0.718,1.292-1.173C12.107,9.873,12.375,9.375,12.541,8.831L12.541,8.831z"/>
</svg>
